<svg xmlns="http://www.w3.org/2000/svg" width="194" height="14" viewBox="0 0 194 14">
    <g fill="none" fill-rule="evenodd">
        <g fill="#f2f2f2" fill-rule="nonzero">
            <g>
                <g>
                    <path d="M6.045 11.13L8.43 4.02l2.31 7.11h2.61L16.785.63H14.46l-2.445 7.44-2.4-7.44h-2.25L4.89 8.01 2.52.63H0l3.45 10.5h2.595zm15.99.12c.85 0 1.61-.178 2.28-.533.67-.354 1.195-.847 1.575-1.477.38-.63.57-1.345.57-2.145s-.19-1.515-.57-2.145c-.38-.63-.905-1.123-1.575-1.478-.67-.354-1.43-.532-2.28-.532-.85 0-1.613.178-2.288.533-.674.355-1.202.847-1.582 1.477-.38.63-.57 1.345-.57 2.145s.19 1.515.57 2.145c.38.63.908 1.123 1.582 1.477.675.355 1.438.533 2.288.533zm0-1.92c-.6 0-1.095-.203-1.485-.607-.39-.405-.585-.948-.585-1.628 0-.68.195-1.223.585-1.627.39-.405.885-.608 1.485-.608.6 0 1.093.202 1.477.607.386.405.578.948.578 1.628 0 .68-.192 1.223-.578 1.628-.384.404-.877.607-1.477.607zm8.325 1.8V7.14c0-.72.175-1.262.525-1.627.35-.365.82-.548 1.41-.548.53 0 .935.157 1.215.473.28.315.42.792.42 1.432v4.26h2.34V6.51c0-1.18-.308-2.07-.923-2.67-.614-.6-1.422-.9-2.422-.9-.55 0-1.055.093-1.515.277-.46.185-.845.448-1.155.788V3.06H28.02v8.07h2.34zm11.49.12c1.1 0 1.94-.35 2.52-1.05v.93h2.235V0h-2.34v3.915c-.58-.65-1.385-.975-2.415-.975-.76 0-1.447.17-2.063.51-.614.34-1.097.825-1.447 1.455-.35.63-.525 1.36-.525 2.19 0 .83.175 1.56.525 2.19.35.63.832 1.115 1.447 1.455.616.34 1.303.51 2.063.51zm.405-1.92c-.6 0-1.095-.203-1.485-.607-.39-.405-.585-.948-.585-1.628 0-.68.195-1.223.585-1.627.39-.405.885-.608 1.485-.608.59 0 1.08.202 1.47.607.39.405.585.948.585 1.628 0 .68-.195 1.223-.585 1.628-.39.404-.88.607-1.47.607zm10.515 1.92c1.46 0 2.57-.435 3.33-1.305l-1.245-1.35c-.28.27-.582.467-.907.592-.325.126-.698.188-1.118.188-.61 0-1.12-.145-1.53-.435-.41-.29-.67-.685-.78-1.185h6.105c.03-.39.045-.6.045-.63 0-.84-.183-1.577-.547-2.213-.365-.635-.868-1.122-1.508-1.462-.64-.34-1.355-.51-2.145-.51-.81 0-1.542.178-2.197.533-.656.355-1.17.85-1.546 1.484-.374.636-.562 1.348-.562 2.138 0 .8.19 1.515.57 2.145.38.63.92 1.123 1.62 1.477.7.355 1.505.533 2.415.533zm1.695-4.86H50.49c.08-.52.3-.93.66-1.23.36-.3.805-.45 1.335-.45.52 0 .96.152 1.32.458.36.304.58.712.66 1.222zm6.105 4.74V7.32c0-.75.19-1.313.57-1.688.38-.374.905-.562 1.575-.562.09 0 .265.01.525.03V2.94c-.62 0-1.168.1-1.643.3-.474.2-.852.495-1.132.885V3.06H58.23v8.07h2.34zm8.22 0l1.875-5.01 1.815 5.01h2.25l2.925-8.07h-2.07L73.62 8.52 71.7 3.06h-1.98l-1.98 5.46-1.905-5.46H63.63l2.91 8.07h2.25zm12.45.12c1.2 0 2.02-.375 2.46-1.125v1.005h2.19V6.525c0-1.2-.335-2.098-1.005-2.693-.67-.595-1.63-.892-2.88-.892-.65 0-1.282.085-1.897.255-.615.17-1.143.41-1.583.72l.84 1.635c.29-.23.642-.412 1.058-.547.415-.136.837-.203 1.267-.203.62 0 1.085.138 1.395.413.31.274.465.667.465 1.177h-1.86c-1.18 0-2.052.215-2.617.645-.566.43-.848 1.02-.848 1.77 0 .47.12.89.36 1.26s.588.66 1.043.87c.454.21.992.315 1.612.315zm.585-1.575c-.41 0-.733-.088-.968-.263-.234-.175-.352-.412-.352-.712 0-.63.48-.945 1.44-.945h1.605v.825c-.13.36-.35.633-.66.818-.31.184-.665.277-1.065.277zm8.52 1.455V0h-2.34v11.13h2.34zm4.515 0V0h-2.34v11.13h2.34zm3.06.12c.41 0 .755-.14 1.035-.42.28-.28.42-.63.42-1.05 0-.43-.14-.777-.42-1.042-.28-.265-.625-.398-1.035-.398-.41 0-.755.133-1.035.398-.28.264-.42.612-.42 1.042 0 .42.14.77.42 1.05.28.28.625.42 1.035.42zM111.225 10.13v-.217c-.282-.023-.473-.058-.575-.105-.164-.078-.246-.219-.246-.422 0-.102.03-.24.091-.413.06-.174.247-.654.56-1.439h3.14l.498 1.155c.07.164.125.32.165.468.039.149.058.252.058.31 0 .177-.05.287-.152.332-.102.045-.328.083-.68.114v.217h3.053v-.217c-.281-.039-.482-.112-.6-.22-.12-.107-.28-.387-.478-.84L113.07 2.05h-.234l-2.502 5.889c-.375.882-.64 1.423-.794 1.623-.154.199-.386.316-.694.351v.217h2.379zm2.8-3.082h-2.76l1.372-3.305 1.388 3.305zm6.252 3.082v-.193c-.363.007-.623-.054-.779-.185-.156-.13-.234-.364-.234-.7V6.409c0-.234.1-.462.299-.682.199-.221.367-.331.503-.331.086 0 .205.068.355.205.15.136.3.205.448.205.145 0 .265-.055.36-.164.096-.11.144-.244.144-.405 0-.18-.062-.329-.187-.448s-.287-.179-.487-.179c-.25 0-.49.098-.723.293-.233.196-.474.467-.724.815v-.961c0-.063-.003-.104-.009-.123-.006-.02-.022-.03-.05-.03-.207.094-.408.178-.603.253-.09.035-.252.093-.486.175l-.686.24v.194c.07-.016.138-.028.202-.038.065-.01.116-.015.155-.015.192 0 .324.083.396.25.072.165.108.442.108.828v2.643c0 .312-.058.517-.175.612-.118.096-.356.16-.715.19v.194h2.888zm2.971.111c.211 0 .43-.056.656-.17.227-.113.442-.306.645-.58l.129-.175-.153-.13c-.132.145-.25.25-.354.317-.104.066-.226.1-.366.1-.274 0-.457-.135-.551-.405-.05-.152-.076-.377-.076-.673l.012-3.375h1.195v-.422H123.2V3.286c0-.05-.005-.08-.014-.088-.01-.007-.04-.011-.091-.011-.442.593-.722.96-.841 1.098-.12.139-.314.32-.583.542-.094.078-.15.128-.167.15-.018.021-.026.051-.026.09 0 .02.004.036.014.047.01.012.025.024.044.036h.639V8.7c0 .395.045.703.135.926.164.41.476.615.937.615zm3.012 1.6c.328-.148.635-.393.92-.732.285-.34.427-.708.427-1.102 0-.344-.097-.612-.292-.806-.196-.193-.416-.29-.663-.29-.257 0-.443.074-.556.223-.114.148-.17.3-.17.457 0 .203.068.358.205.466.137.107.287.16.451.16l.393-.04c.039 0 .076.008.111.023.035.016.053.051.053.106 0 .164-.072.369-.214.615-.143.246-.401.475-.776.686l.11.234zm7.002-1.6c.62 0 1.168-.261 1.64-.785.247-.273.48-.644.704-1.113l-.165-.1c-.226.332-.43.575-.609.727-.316.265-.678.398-1.084.398-.574 0-1.03-.234-1.368-.703-.338-.469-.507-.998-.507-1.588 0-.644.153-1.16.46-1.55.307-.388.683-.583 1.128-.583.211 0 .38.041.51.123.125.086.213.233.263.44l.07.281c.048.18.123.317.226.41.104.094.224.141.36.141.188 0 .327-.056.417-.167.09-.111.134-.231.134-.36 0-.301-.176-.578-.53-.83-.353-.251-.774-.377-1.262-.377-.782 0-1.428.29-1.94.873-.512.582-.768 1.277-.768 2.086 0 .824.235 1.476.704 1.957.468.48 1.007.72 1.617.72zm5.42-.111v-.164c-.332-.047-.55-.125-.65-.234-.102-.11-.153-.383-.153-.82v-2.89c0-.066.143-.208.428-.427.285-.219.58-.328.884-.328.352 0 .591.117.718.351.127.235.19.541.19.92v2.373c0 .43-.048.701-.146.815-.097.113-.316.193-.656.24v.164h2.537v-.164c-.297-.04-.493-.121-.589-.246-.096-.125-.143-.395-.143-.809v-2.39c0-.457-.063-.827-.188-1.108-.23-.531-.662-.797-1.295-.797-.398 0-.77.118-1.113.352-.191.133-.41.34-.656.621V1.991l-.012-.04-.563.175c-.097.031-.272.083-.524.155l-.636.185v.21l.138-.02c.041-.005.083-.008.126-.008.219 0 .356.051.413.155.057.103.085.264.085.483v5.625c0 .43-.05.702-.15.818-.099.115-.309.194-.63.237v.164h2.585zm4.992.088c.32 0 .658-.106 1.014-.317.21-.125.464-.316.761-.574.012.239.077.444.197.616.119.171.311.257.577.257.226 0 .449-.074.668-.222.144-.098.279-.223.404-.375v-.305c-.145.105-.246.172-.305.2-.058.027-.133.04-.222.04-.16 0-.266-.076-.317-.228-.031-.086-.047-.242-.047-.47V6.492c0-.515-.072-.908-.216-1.177-.27-.493-.784-.739-1.541-.739-.653 0-1.148.15-1.486.449-.338.298-.507.585-.507.858 0 .14.047.269.141.384.094.115.229.173.404.173.114 0 .211-.026.293-.077.145-.086.217-.238.217-.457 0-.03-.01-.102-.03-.213-.019-.112-.029-.19-.029-.238 0-.183.09-.328.27-.433.18-.102.37-.153.568-.153.418 0 .694.131.827.393.078.156.117.433.117.832v.498c-1.075.402-1.791.72-2.15.955-.567.379-.85.852-.85 1.418 0 .363.123.663.369.9.246.236.537.354.873.354zm.662-.71c-.187 0-.357-.054-.51-.163-.234-.168-.351-.43-.351-.785 0-.442.28-.836.843-1.184.293-.18.664-.344 1.114-.492V8.74c0 .223-.118.407-.355.551-.236.145-.483.217-.741.217zm5.76.622v-.164c-.27-.008-.467-.06-.592-.155-.125-.096-.188-.285-.188-.566V5.964c.211-.207.383-.355.516-.445.238-.157.473-.235.703-.235.336 0 .567.11.692.331.125.221.187.5.187.835v2.502c0 .399-.056.657-.17.777-.113.119-.312.198-.597.237v.164h2.502v-.164c-.266-.004-.456-.068-.569-.193-.113-.125-.17-.329-.17-.61V6.427c0-.762-.21-1.291-.633-1.588-.218-.152-.46-.229-.726-.229-.328 0-.645.096-.95.288-.202.125-.484.355-.843.691v-.861c0-.035-.003-.063-.009-.082-.006-.02-.022-.03-.05-.03l-.55.182c-.598.195-.977.316-1.137.363v.205l.137-.017c.038-.004.074-.006.109-.006.23 0 .383.074.457.223.047.101.07.277.07.527v2.97c0 .36-.055.591-.167.695-.111.103-.305.173-.583.208v.164h2.56zm5.625 2.613c.703 0 1.4-.183 2.089-.55.69-.368 1.034-.86 1.034-1.477 0-.606-.295-1-.885-1.184-.36-.113-1.041-.17-2.045-.17-.219 0-.418-.02-.598-.058-.273-.059-.41-.15-.41-.276 0-.12.093-.277.279-.468.185-.192.335-.287.448-.287.254.035.43.052.527.052.625 0 1.122-.186 1.491-.56.37-.372.554-.781.554-1.227 0-.203-.033-.418-.1-.644-.039-.121-.093-.264-.164-.428h1.014V4.99h-.134l-.297.01c-.166.005-.29.008-.372.008-.316 0-.646-.067-.99-.202s-.658-.202-.943-.202c-.664 0-1.178.205-1.541.615-.363.41-.545.844-.545 1.3 0 .376.099.714.296 1.014.197.301.473.51.829.627-.442.39-.73.673-.864.847-.135.174-.203.333-.203.477 0 .157.079.295.235.416.09.067.224.135.404.206l-.07.07-.387.346c-.293.265-.49.465-.589.6-.1.135-.15.273-.15.413 0 .285.188.558.563.818.375.26.883.39 1.524.39zm.65-4.699c-.367 0-.666-.19-.896-.568-.23-.38-.346-.807-.346-1.284 0-.28.037-.517.111-.708.145-.364.409-.545.791-.545.442 0 .757.232.947.697.19.465.284.883.284 1.254 0 .465-.117.79-.352.978-.144.117-.324.176-.539.176zm-.053 4.037c-.476 0-.899-.062-1.268-.187-.37-.125-.554-.352-.554-.68 0-.211.094-.441.281-.691.184-.247.3-.37.346-.37.094.02.236.043.428.07.191.028.33.044.416.048.133.007.28.014.44.02l.456.015c.567.008.952.037 1.155.088.328.086.492.26.492.521 0 .328-.203.605-.61.83-.406.224-.933.336-1.582.336zm5.538-1.81c.636 0 1.174-.211 1.614-.633.44-.422.74-.881.9-1.377l-.206-.07c-.238.394-.498.699-.78.914-.28.214-.626.322-1.036.322-.508 0-.948-.207-1.319-.621-.37-.414-.576-1.074-.615-1.98h3.72c0-.7-.206-1.24-.62-1.62-.414-.382-.897-.572-1.448-.572-.746 0-1.351.285-1.816.855-.465.57-.697 1.248-.697 2.034 0 .722.2 1.36.6 1.916.4.554.968.832 1.703.832zm1.054-3.82h-2.472c.054-.321.144-.587.27-.798.233-.394.573-.591 1.019-.591.449 0 .77.172.96.515.106.192.18.483.223.873zm4.037 3.79c.559 0 1.011-.146 1.357-.44.345-.292.518-.669.518-1.13 0-.602-.416-1.129-1.248-1.582l-.773-.416c-.54-.281-.809-.602-.809-.961 0-.227.078-.424.235-.592.156-.168.37-.252.644-.252.457 0 .807.196 1.049.586.133.211.238.506.316.885h.182l-.041-1.635h-.14c-.024.043-.051.074-.083.094-.03.02-.082.03-.152.03-.031 0-.17-.04-.419-.118-.248-.078-.476-.117-.683-.117-.472 0-.865.14-1.177.422-.313.281-.469.64-.469 1.078 0 .355.113.664.34.926.226.261.58.521 1.06.779l.657.375c.246.145.418.293.515.445.098.153.147.31.147.475 0 .258-.085.468-.255.63-.17.162-.402.243-.694.243-.528 0-.928-.219-1.202-.656-.152-.239-.273-.58-.363-1.026h-.193v1.893h.152c.02-.047.047-.087.082-.12s.076-.05.123-.05c.055 0 .23.039.527.117.297.078.563.117.797.117zm11.96-.111l.585-2.08h-.304c-.352.723-.715 1.172-1.09 1.348-.375.175-1.096.263-2.162.263-.274 0-.46-.002-.56-.006-.1-.004-.194-.011-.284-.023-.152-.02-.251-.067-.296-.144-.045-.076-.067-.18-.067-.313V3.409c0-.398.075-.658.225-.779.15-.121.446-.193.888-.217v-.222h-3.393v.222c.446.031.733.113.862.243.129.131.193.41.193.835V8.83c0 .453-.065.736-.196.847-.131.111-.417.19-.859.237v.217h6.457zm2.331-6.955c.168 0 .312-.06.431-.179.12-.119.179-.262.179-.43 0-.172-.06-.318-.179-.437-.12-.12-.263-.179-.43-.179-.173 0-.317.06-.434.182-.117.121-.176.266-.176.434 0 .168.059.311.176.43.117.12.261.179.433.179zm1.489 6.955v-.164c-.38-.031-.622-.104-.73-.217-.107-.113-.161-.392-.161-.838V4.704c0-.031-.004-.06-.012-.088-.031 0-.101.024-.21.07-.27.114-.747.282-1.43.505l-.252.082v.181l.197-.054c.08-.022.133-.035.157-.04.041-.007.083-.011.126-.011.188 0 .31.08.37.24.034.098.052.273.052.527v2.795c0 .457-.055.738-.164.841-.11.104-.373.175-.791.214v.164h2.848zm3.609 0v-.164c-.504-.035-.815-.114-.935-.237-.119-.123-.178-.406-.178-.847V5.12h1.459v-.392h-1.471V3.339c0-.254.03-.459.088-.615.105-.293.307-.44.603-.44.133 0 .237.029.311.085.074.057.139.126.193.208l.1.153c.113.171.21.292.293.36.082.068.18.103.293.103.133 0 .246-.051.34-.153.093-.101.14-.217.14-.346 0-.23-.135-.414-.407-.55-.271-.137-.579-.205-.923-.205-.855 0-1.443.408-1.763 1.224-.168.426-.252.947-.252 1.565h-1.002v.392h1.002v3.762c0 .434-.066.718-.197.852-.13.135-.403.212-.817.232v.164h3.123zm3.176.14c.637 0 1.175-.21 1.614-.632.44-.422.74-.881.9-1.377l-.206-.07c-.238.394-.498.699-.779.914-.281.214-.627.322-1.037.322-.508 0-.947-.207-1.318-.621-.371-.414-.577-1.074-.616-1.98h3.721c0-.7-.207-1.24-.621-1.62-.414-.382-.896-.572-1.447-.572-.746 0-1.352.285-1.817.855-.465.57-.697 1.248-.697 2.034 0 .722.2 1.36.6 1.916.401.554.968.832 1.703.832zm1.054-3.82h-2.472c.055-.32.144-.586.27-.797.234-.394.574-.591 1.019-.591.45 0 .77.172.96.515.106.192.18.483.223.873z" transform="translate(-124 -730) translate(0 689) translate(124.33 41.87)"/>
                </g>
            </g>
        </g>
    </g>
</svg>
