<svg xmlns="http://www.w3.org/2000/svg" width="32" height="32" viewBox="0 0 32 32">
    <g fill="none" fill-rule="evenodd" opacity=".5">
        <g>
            <g>
                <g transform="translate(-834 -752) translate(0 689) translate(834 63)">
                    <rect width="32" height="32" rx="16"/>
                    <path fill="#f2f2f2" d="M23.273 8H10.06C8.923 8 8 8.92 8 10.056v13.221c0 1.136.923 2.056 2.06 2.056h13.213c1.138 0 2.06-.92 2.06-2.056V10.056c0-1.136-.922-2.056-2.06-2.056zM20 11.2c0-.293.24-.533.533-.533h1.6c.295 0 .534.238.534.533v1.6c0 .295-.24.533-.534.533h-1.6c-.294 0-.533-.238-.533-.533v-1.6zm-3.333 2.133c1.84 0 3.333 1.493 3.333 3.334C20 18.507 18.508 20 16.667 20c-1.841 0-3.334-1.492-3.334-3.333 0-1.841 1.493-3.334 3.334-3.334zM24 23.416c.003.152-.055.3-.16.409-.107.11-.252.173-.404.175H9.897c-.152-.002-.297-.065-.403-.175-.106-.11-.164-.257-.16-.409v-8.75h2.255c-.293.438-.393 1.254-.393 1.773 0 3.122 2.464 5.665 5.492 5.665 3.027 0 5.49-2.543 5.49-5.667 0-.517-.07-1.32-.434-1.77H24v8.749z"/>
                </g>
            </g>
        </g>
    </g>
</svg>
