<svg xmlns="http://www.w3.org/2000/svg" xmlns:xlink="http://www.w3.org/1999/xlink" width="205" height="24" viewBox="0 0 205 24">
    <defs>
        <path id="a" d="M.02.324h19.183v23.383H.02z"/>
    </defs>
    <g fill="none" fill-rule="evenodd" opacity=".9">
        <path fill="#f2f2f2"
              d="M29.34 1.988l-3.934 12.531-3.721-12.531h-6.618l-3.935 12.375-3.72-12.375H0l6.833 21.766h7.716l3.629-11.629 3.447 11.629h7.716l6.831-21.766zM46.182 17.396c.507-.59.762-1.416.762-2.474 0-1.057-.255-1.875-.762-2.456-.509-.58-1.16-.87-1.952-.87-.794 0-1.444.29-1.953.87-.508.58-.762 1.4-.762 2.456 0 1.058.254 1.883.762 2.474.509.59 1.16.885 1.953.885.793 0 1.443-.295 1.952-.885m-6.939 5.224c-1.474-.757-2.628-1.804-3.462-3.141-.834-1.337-1.25-2.856-1.25-4.557 0-1.699.416-3.217 1.25-4.554.834-1.337 1.988-2.379 3.462-3.125 1.474-.747 3.136-1.12 4.987-1.12 1.87 0 3.542.373 5.017 1.12 1.474.746 2.622 1.788 3.445 3.125.825 1.337 1.236 2.855 1.236 4.554 0 1.701-.411 3.22-1.236 4.557-.823 1.337-1.971 2.384-3.445 3.14-1.475.757-3.147 1.135-5.017 1.135-1.851 0-3.513-.378-4.987-1.134M72.304 8.33c1.25 1.265 1.875 3.172 1.875 5.723v9.7h-6.892v-8.487c0-1.95-.682-2.925-2.044-2.925-.773 0-1.399.277-1.876.826-.478.55-.716 1.414-.716 2.595v7.992h-6.893V6.744h6.557v1.68a6.347 6.347 0 0 1 2.258-1.492 7.594 7.594 0 0 1 2.774-.498c2.054 0 3.706.633 4.957 1.897"/>
        <g transform="translate(75.668 .047)">
            <mask id="b" fill="#f2f2f2">
                <use xlink:href="#a"/>
            </mask>
            <path fill="#f2f2f2"
                  d="M11.67 17.349c.507-.59.762-1.416.762-2.474 0-1.057-.255-1.875-.762-2.456-.508-.58-1.16-.87-1.952-.87-.793 0-1.444.29-1.952.87-.509.58-.762 1.4-.762 2.456 0 1.058.253 1.883.762 2.474.508.59 1.16.885 1.952.885.793 0 1.444-.295 1.952-.885zM19.203.324v23.072h-6.557v-1.398c-.997 1.14-2.522 1.709-4.575 1.709-1.464 0-2.811-.357-4.042-1.073-1.23-.715-2.206-1.745-2.927-3.094C.38 18.193.02 16.638.02 14.875c0-1.76.36-3.31 1.083-4.647C1.823 8.889 2.8 7.863 4.03 7.149c1.23-.716 2.578-1.073 4.042-1.073 1.85 0 3.263.488 4.24 1.46V.325h6.892z"
                  mask="url(#b)"/>
        </g>
        <path fill="#f2f2f2"
              d="M103.691 11.502c-.468.395-.772.954-.915 1.68h5.368c-.143-.705-.447-1.26-.915-1.664-.468-.404-1.057-.606-1.77-.606-.712 0-1.3.197-1.768.59m10.796 5.07h-11.588c.244.642.65 1.134 1.22 1.476.568.343 1.28.513 2.133.513.733 0 1.347-.093 1.847-.28.496-.185 1.04-.508 1.631-.963l3.6 3.7c-1.629 1.825-4.058 2.736-7.29 2.736-2.013 0-3.782-.377-5.307-1.134-1.525-.757-2.705-1.809-3.538-3.156-.834-1.348-1.25-2.861-1.25-4.541 0-1.7.411-3.218 1.235-4.555.823-1.337 1.952-2.379 3.385-3.125 1.434-.747 3.044-1.12 4.834-1.12 1.688 0 3.228.342 4.62 1.027a8 8 0 0 1 3.325 3.015c.823 1.327 1.236 2.914 1.236 4.758 0 .104-.03.654-.093 1.649M127.684 6.434v6.22a10.093 10.093 0 0 0-1.525-.126c-2.358 0-3.536 1.224-3.536 3.67v7.556h-6.893V6.744h6.556V8.58c1.22-1.429 3.02-2.145 5.398-2.145M158.214 6.745l-5.795 17.009h-6.71l-2.531-7.867-2.623 7.867h-6.71l-5.794-17.01h6.526l2.867 8.987 2.99-8.986h5.856l2.897 9.08 2.987-9.08zM167.365 19.12c.385-.268.671-.672.853-1.211v-1.183h-1.707c-1.403 0-2.105.477-2.105 1.431 0 .394.147.721.442.98.295.26.697.388 1.206.388.488 0 .924-.134 1.31-.405m5.43-10.99c1.545 1.337 2.317 3.395 2.317 6.171v9.143h-6.405v-2.24c-.793 1.7-2.368 2.55-4.726 2.55-1.323 0-2.446-.233-3.372-.698-.924-.467-1.626-1.1-2.104-1.898-.478-.799-.717-1.694-.717-2.69 0-1.678.631-2.953 1.892-3.825 1.26-.87 3.171-1.306 5.733-1.306h2.776c-.224-1.325-1.271-1.99-3.141-1.99-.753 0-1.515.119-2.288.357-.772.239-1.434.565-1.983.98l-2.195-4.633c.955-.6 2.11-1.073 3.461-1.415 1.352-.343 2.7-.512 4.042-.512 2.927 0 5.164.667 6.71 2.006M177.764 23.754h6.893V.681h-6.893zM187.37 23.754h6.894V.681h-6.893zM197.926 22.62c-.762-.757-1.144-1.727-1.144-2.907 0-1.183.382-2.14 1.144-2.877.763-.736 1.724-1.103 2.882-1.103 1.16 0 2.12.367 2.882 1.103.762.737 1.145 1.694 1.145 2.877 0 1.18-.383 2.15-1.145 2.907-.763.757-1.722 1.134-2.882 1.134-1.158 0-2.12-.377-2.882-1.134"/>
    </g>
</svg>
