<svg width="18" height="18" viewBox="0 0 18 18" fill="none" xmlns="http://www.w3.org/2000/svg">
<path fill-rule="evenodd" clip-rule="evenodd" d="M11.8897 12.42C10.6275 13.5577 8.9565 14.25 7.125 14.25C3.19275 14.25 0 11.0573 0 7.125C0 3.19275 3.19275 0 7.125 0C11.0573 0 14.25 3.19275 14.25 7.125C14.25 8.9565 13.5577 10.6275 12.42 11.8897L18 17.4697L17.4697 18L11.8897 12.42ZM7.125 0.75C10.6432 0.75 13.5 3.60675 13.5 7.125C13.5 10.6432 10.6432 13.5 7.125 13.5C3.60675 13.5 0.75 10.6432 0.75 7.125C0.75 3.60675 3.60675 0.75 7.125 0.75Z" fill="white"/>
</svg>
