<svg xmlns="http://www.w3.org/2000/svg" width="32" height="32" viewBox="0 0 32 32">
    <g fill="none" fill-rule="evenodd" opacity=".5">
        <g>
            <g>
                <g transform="translate(-786 -752) translate(0 689) translate(786 63)">
                    <rect width="32" height="32" rx="16"/>
                    <g fill="#f2f2f2" fill-rule="nonzero">
                        <path d="M19.085 2.475c-.218-.871-.861-1.558-1.676-1.79C15.93.261 10 .261 10 .261s-5.93 0-7.41.424c-.814.232-1.457.919-1.675 1.79C.52 4.053.52 7.348.52 7.348s0 3.293.396 4.872c.202.845.842 1.518 1.676 1.761 1.48.424 7.41.424 7.41.424s5.929 0 7.409-.424c.834-.243 1.473-.915 1.676-1.76.396-1.58.396-4.873.396-4.873s0-3.293-.396-4.873h-.002zM8.06 10.339V4.357l4.957 2.99-4.957 2.992z" transform="translate(6.667 9.333)"/>
                    </g>
                </g>
            </g>
        </g>
    </g>
</svg>
